<svg xmlns="http://www.w3.org/2000/svg" version="1.1" xmlns:xlink="http://www.w3.org/1999/xlink" xmlns:svgjs="http://svgjs.dev/svgjs" width="1500" height="1500" viewBox="0 0 1500 1500"><rect width="1500" height="1500" fill="#000000"></rect><g transform="matrix(0.6666666666666666,0,0,0.6666666666666666,248.93816064496224,372.1182795698925)"><svg viewBox="0 0 329 248" data-background-color="#ffffff" preserveAspectRatio="xMidYMid meet" height="1130" width="1500" xmlns="http://www.w3.org/2000/svg" xmlns:xlink="http://www.w3.org/1999/xlink"><g id="tight-bounds" transform="matrix(1,0,0,1,0.3493451478074405,0.4000000000000057)"><svg viewBox="0 0 328.3013097043851 247.2" height="247.2" width="328.3013097043851"><g><svg viewBox="0 0 395.52 297.81344487488667" height="247.2" width="328.3013097043851"><g transform="matrix(1,0,0,1,0,163.7002806350674)"><svg viewBox="0 0 395.52 134.11316423981927" height="134.11316423981927" width="395.52"><g id="textblocktransform"><svg viewBox="0 0 395.52 134.11316423981927" height="134.11316423981927" width="395.52" id="textblock"><g><svg viewBox="0 0 395.52 75.59601659751037" height="75.59601659751037" width="395.52"><g transform="matrix(1,0,0,1,0,0)"><svg width="395.52" viewBox="3 -35.5 188.27 35.99" height="75.59601659751037" data-palette-color="#2a160c"><path d="M23.19-9.16L23.19-8.11Q23.19-6.32 22.47-4.76 21.75-3.2 20.54-2.03 19.34-0.85 17.74-0.18 16.14 0.49 14.36 0.49L14.36 0.49 11.84 0.49Q10.06 0.49 8.46-0.18 6.86-0.85 5.65-2.03 4.44-3.2 3.72-4.76 3-6.32 3-8.11L3-8.11 3-9.5 6.15-10.01 6.15-8.11Q6.15-6.93 6.63-5.92 7.1-4.91 7.91-4.14 8.72-3.37 9.78-2.93 10.84-2.49 12.01-2.49L12.01-2.49 14.21-2.49Q15.38-2.49 16.43-2.93 17.48-3.37 18.29-4.14 19.09-4.91 19.57-5.92 20.04-6.93 20.04-8.11L20.04-8.11 20.04-9.16Q20.04-10.96 19.34-12.16 18.63-13.35 17.46-14.2 16.28-15.04 14.81-15.63 13.33-16.21 11.77-16.8 10.21-17.38 8.73-18.09 7.25-18.8 6.08-19.86 4.91-20.92 4.2-22.46 3.49-24 3.49-26.25L3.49-26.25 3.49-26.9Q3.49-28.69 4.16-30.25 4.83-31.81 6.01-32.98 7.18-34.16 8.75-34.83 10.33-35.5 12.11-35.5L12.11-35.5 14.36-35.5Q16.14-35.5 17.7-34.83 19.26-34.16 20.43-32.98 21.61-31.81 22.28-30.25 22.95-28.69 22.95-26.9L22.95-26.9 22.95-26 19.8-25.49 19.8-26.9Q19.8-28.08 19.36-29.09 18.92-30.1 18.16-30.86 17.41-31.62 16.39-32.06 15.38-32.5 14.21-32.5L14.21-32.5 12.26-32.5Q11.08-32.5 10.07-32.06 9.06-31.62 8.29-30.86 7.52-30.1 7.08-29.09 6.64-28.08 6.64-26.9L6.64-26.9 6.64-26.25Q6.64-24.56 7.35-23.41 8.06-22.27 9.23-21.45 10.4-20.63 11.88-20.03 13.35-19.43 14.92-18.81 16.48-18.19 17.96-17.44 19.43-16.7 20.61-15.61 21.78-14.53 22.49-12.96 23.19-11.4 23.19-9.16L23.19-9.16ZM46.8-32.01L38.45-32.01 38.45 0 35.3 0 35.3-32.01 26.95-32.01 26.95-35.01 46.8-35.01 46.8-32.01ZM71.89 0L68.26 0 58.76-14.94 54.44-14.94 54.44 0 51.29 0 51.29-35.01 62.4-35.01Q64.18-35.01 65.74-34.34 67.3-33.67 68.48-32.5 69.65-31.32 70.32-29.75 70.99-28.17 70.99-26.39L70.99-26.39 70.99-23.56Q70.99-21.78 70.32-20.2 69.65-18.63 68.48-17.46 67.3-16.28 65.74-15.61 64.18-14.94 62.4-14.94L62.4-14.94 71.89 0ZM67.84-23.56L67.84-26.39Q67.84-27.56 67.4-28.58 66.96-29.59 66.21-30.36 65.45-31.13 64.44-31.57 63.42-32.01 62.25-32.01L62.25-32.01 54.44-32.01 54.44-17.94 62.25-17.94Q63.42-17.94 64.44-18.38 65.45-18.82 66.21-19.59 66.96-20.36 67.4-21.37 67.84-22.39 67.84-23.56L67.84-23.56ZM93.35 0L91.03-8.15 79.95-8.15 77.65 0 74.38 0 84.64-35.01 86.3-35.01 96.6 0 93.35 0ZM85.39-27.29L80.8-11.16 90.2-11.16 85.59-27.29 85.49-28.59 85.39-27.29ZM120.28-9.16L120.28-8.11Q120.28-6.32 119.56-4.76 118.84-3.2 117.63-2.03 116.42-0.85 114.82-0.18 113.22 0.49 111.44 0.49L111.44 0.49 108.93 0.49Q107.14 0.49 105.54-0.18 103.95-0.85 102.74-2.03 101.53-3.2 100.81-4.76 100.09-6.32 100.09-8.11L100.09-8.11 100.09-9.5 103.24-10.01 103.24-8.11Q103.24-6.93 103.71-5.92 104.19-4.91 104.99-4.14 105.8-3.37 106.86-2.93 107.92-2.49 109.1-2.49L109.1-2.49 111.29-2.49Q112.47-2.49 113.52-2.93 114.57-3.37 115.37-4.14 116.18-4.91 116.65-5.92 117.13-6.93 117.13-8.11L117.13-8.11 117.13-9.16Q117.13-10.96 116.42-12.16 115.71-13.35 114.54-14.2 113.37-15.04 111.89-15.63 110.41-16.21 108.85-16.8 107.29-17.38 105.81-18.09 104.34-18.8 103.16-19.86 101.99-20.92 101.28-22.46 100.58-24 100.58-26.25L100.58-26.25 100.58-26.9Q100.58-28.69 101.25-30.25 101.92-31.81 103.09-32.98 104.26-34.16 105.84-34.83 107.41-35.5 109.19-35.5L109.19-35.5 111.44-35.5Q113.22-35.5 114.78-34.83 116.35-34.16 117.52-32.98 118.69-31.81 119.36-30.25 120.03-28.69 120.03-26.9L120.03-26.9 120.03-26 116.88-25.49 116.88-26.9Q116.88-28.08 116.45-29.09 116.01-30.1 115.25-30.86 114.49-31.62 113.48-32.06 112.47-32.5 111.29-32.5L111.29-32.5 109.34-32.5Q108.17-32.5 107.16-32.06 106.14-31.62 105.37-30.86 104.6-30.1 104.16-29.09 103.73-28.08 103.73-26.9L103.73-26.9 103.73-26.25Q103.73-24.56 104.43-23.41 105.14-22.27 106.31-21.45 107.49-20.63 108.96-20.03 110.44-19.43 112-18.81 113.56-18.19 115.04-17.44 116.52-16.7 117.69-15.61 118.86-14.53 119.57-12.96 120.28-11.4 120.28-9.16L120.28-9.16ZM126.79-35.01L134.53-7.69 134.63-6.4 134.73-7.69 142.49-35.01 145.74-35.01 135.44 0 133.78 0 123.52-35.01 126.79-35.01ZM167.07-32.01L158.73-32.01 158.73 0 155.58 0 155.58-32.01 147.23-32.01 147.23-35.01 167.07-35.01 167.07-32.01ZM191.27-8.11L191.27-8.11Q191.27-6.32 190.6-4.76 189.92-3.2 188.75-2.03 187.58-0.85 186.02-0.18 184.46 0.49 182.67 0.49L182.67 0.49 180.18 0.49Q178.4 0.49 176.83-0.18 175.25-0.85 174.08-2.03 172.91-3.2 172.24-4.76 171.56-6.32 171.56-8.11L171.56-8.11 171.56-26.9Q171.56-28.69 172.24-30.25 172.91-31.81 174.08-32.98 175.25-34.16 176.83-34.83 178.4-35.5 180.18-35.5L180.18-35.5 182.67-35.5Q184.46-35.5 186.02-34.83 187.58-34.16 188.75-32.98 189.92-31.81 190.6-30.25 191.27-28.69 191.27-26.9L191.27-26.9 191.27-25.49 188.12-25 188.12-26.9Q188.12-28.08 187.68-29.09 187.24-30.1 186.48-30.86 185.72-31.62 184.71-32.06 183.7-32.5 182.53-32.5L182.53-32.5 180.33-32.5Q179.16-32.5 178.14-32.06 177.13-31.62 176.36-30.86 175.59-30.1 175.15-29.09 174.71-28.08 174.71-26.9L174.71-26.9 174.71-8.11Q174.71-6.93 175.15-5.92 175.59-4.91 176.36-4.14 177.13-3.37 178.14-2.93 179.16-2.49 180.33-2.49L180.33-2.49 182.53-2.49Q183.7-2.49 184.71-2.93 185.72-3.37 186.48-4.14 187.24-4.91 187.68-5.92 188.12-6.93 188.12-8.11L188.12-8.11 188.12-10.01 191.27-9.5 191.27-8.11Z" opacity="1" transform="matrix(1,0,0,1,0,0)" fill="#ffffff" class="wordmark-text-0" data-fill-palette-color="primary" id="text-0"></path></svg></g></svg></g><g transform="matrix(1,0,0,1,41.52959999999999,93.44242181178423)"><svg viewBox="0 0 312.4608 40.67074242803505" height="40.67074242803505" width="312.4608"><g transform="matrix(1,0,0,1,0,0)"><svg width="312.4608" viewBox="4 -35.7 279.63 36.400000000000006" height="40.67074242803505" data-palette-color="#99592a"><path d="M4-17.5L4-17.5Q4-21.35 5.38-24.68 6.75-28 9.22-30.48 11.7-32.95 15.03-34.33 18.35-35.7 22.2-35.7L22.2-35.7Q26.05-35.7 29.38-34.33 32.7-32.95 35.18-30.48 37.65-28 39.03-24.68 40.4-21.35 40.4-17.5L40.4-17.5Q40.4-13.65 39.03-10.33 37.65-7 35.18-4.53 32.7-2.05 29.38-0.68 26.05 0.7 22.2 0.7L22.2 0.7Q18.35 0.7 15.03-0.68 11.7-2.05 9.22-4.53 6.75-7 5.38-10.33 4-13.65 4-17.5ZM7.8-17.5L7.8-17.5Q7.8-12.4 9.6-8.58 11.4-4.75 14.65-2.63 17.9-0.5 22.2-0.5L22.2-0.5Q26.5-0.5 29.75-2.63 33-4.75 34.8-8.6 36.6-12.45 36.6-17.5L36.6-17.5Q36.6-22.55 34.8-26.38 33-30.2 29.75-32.35 26.5-34.5 22.2-34.5L22.2-34.5Q17.9-34.5 14.68-32.38 11.45-30.25 9.63-26.43 7.8-22.6 7.8-17.5ZM53.55 0L50.15 0 51.4-35.7 52-35.7 77.15-5.3 77.45-5.3 76.35-35 79.75-35 78.5 0.7 77.9 0.7 52.75-29.7 52.45-29.7 53.55 0ZM116.49 0.7L100.59-35 104.34-35 117.99-3.9 118.29-3.9 129.74-35 133.49-35 117.59 0.7 116.49 0.7ZM136.99 0L133.34 0 146.79-35 149.89-35 163.34 0 159.69 0 153.49-16.4 142.14-16.4 136.99 0ZM147.44-32.4L147.14-32.4 142.49-17.6 153.04-17.6 147.44-32.4ZM182.44-17.5L182.44-17.5Q182.44-21.35 183.81-24.68 185.19-28 187.66-30.48 190.14-32.95 193.46-34.33 196.79-35.7 200.64-35.7L200.64-35.7Q204.49-35.7 207.81-34.33 211.14-32.95 213.61-30.48 216.09-28 217.46-24.68 218.84-21.35 218.84-17.5L218.84-17.5Q218.84-13.65 217.46-10.33 216.09-7 213.61-4.53 211.14-2.05 207.81-0.68 204.49 0.7 200.64 0.7L200.64 0.7Q196.79 0.7 193.46-0.68 190.14-2.05 187.66-4.53 185.19-7 183.81-10.33 182.44-13.65 182.44-17.5ZM186.24-17.5L186.24-17.5Q186.24-12.4 188.04-8.58 189.84-4.75 193.09-2.63 196.34-0.5 200.64-0.5L200.64-0.5Q204.94-0.5 208.19-2.63 211.44-4.75 213.24-8.6 215.04-12.45 215.04-17.5L215.04-17.5Q215.04-22.55 213.24-26.38 211.44-30.2 208.19-32.35 204.94-34.5 200.64-34.5L200.64-34.5Q196.34-34.5 193.11-32.38 189.89-30.25 188.06-26.43 186.24-22.6 186.24-17.5ZM228.83-14L228.83-35 232.23-35 232.23-13.9Q232.23-7.85 235.21-4.48 238.18-1.1 243.58-1.1L243.58-1.1Q246.98-1.1 249.51-2.43 252.03-3.75 253.41-6.1 254.78-8.45 254.68-11.5L254.68-11.5 253.83-35 257.23-35 256.38-11.5Q256.18-5.5 252.81-2.4 249.43 0.7 243.18 0.7L243.18 0.7Q236.43 0.7 232.63-3.23 228.83-7.15 228.83-14L228.83-14ZM278.23-18.75L278.23-18.75 273.08-15.4 272.73-8.65 271.73-8.65 271.43-15.6 276.43-20.05Q279.93-23.1 279.93-27.6L279.93-27.6Q279.93-30.75 278.28-32.63 276.63-34.5 273.88-34.5L273.88-34.5Q272.03-34.5 269.96-33.65 267.88-32.8 266.28-31.2L266.28-31.2 265.98-31.2 265.73-33.9Q267.48-34.75 269.66-35.23 271.83-35.7 273.88-35.7L273.88-35.7Q278.28-35.7 280.96-33.55 283.63-31.4 283.63-27.85L283.63-27.85Q283.63-25.3 282.18-22.85 280.73-20.4 278.23-18.75ZM269.63-2.1L269.63-2.1Q269.63-3.25 270.38-3.98 271.13-4.7 272.23-4.7L272.23-4.7Q273.38-4.7 274.11-3.98 274.83-3.25 274.83-2.1L274.83-2.1Q274.83-1 274.11-0.25 273.38 0.5 272.23 0.5L272.23 0.5Q271.13 0.5 270.38-0.25 269.63-1 269.63-2.1Z" opacity="1" transform="matrix(1,0,0,1,0,0)" fill="#ffffff" class="slogan-text-1" data-fill-palette-color="secondary" id="text-1"></path></svg></g></svg></g></svg></g></svg></g><g transform="matrix(1,0,0,1,95.09882879999999,0)"><svg viewBox="0 0 205.3223424 145.85387542079354" height="145.85387542079354" width="205.3223424"><g><svg xmlns="http://www.w3.org/2000/svg" xmlns:xlink="http://www.w3.org/1999/xlink" version="1.1" x="8" y="0" viewBox="30.294 235.896 535.2040000000001 412.321" enable-background="new 0 0 595.28 841.89" xml:space="preserve" height="145.85387542079354" width="189.3223424" class="icon-icon-0" data-fill-palette-color="accent" id="icon-0"><path d="M326.047 301.312V249.725L339.006 236.373C339.476 236.397 339.941 236.433 340.411 236.462V302.026A859 859 0 0 0 326.047 301.312M270.751 300.8V244.498L262.512 235.896C260.899 235.967 259.303 236.057 257.69 236.14V301.204A864 864 0 0 1 270.751 300.8M402.415 243.075L386.569 253.641 385.289 305.889C387.789 306.175 390.301 306.449 392.694 306.693V280.941L400.373 277.685V307.437C404.605 307.83 407.469 308.062 407.469 308.062V243.206C405.785 242.927 404.106 243.343 402.415 243.075M437.507 261.475V313.866C441.073 314.557 444.573 315.295 448.073 316.039V290.251L457.848 285.59V318.188C461.092 318.932 464.36 319.664 467.545 320.45V248.73zM337.56 373.436C359.847 374.037 381.754 375.252 403.1 377.032V318.587C381.956 315.492 359.93 313.229 337.56 311.872zM462.729 330.046C445.502 325.885 427.143 322.289 408.029 319.355V377.46A1028 1028 0 0 1 462.729 383.722zM56.671 401.188V349.428C51.927 351.428 47.373 353.494 43.021 355.631V404.938A552 552 0 0 1 56.671 401.188M186.275 317.033C168 319.426 150.409 322.426 133.747 325.992V385.46C150.707 382.835 168.261 380.608 186.275 378.793zM332.631 311.574A775 775 0 0 0 290.64 310.419C281.645 310.419 272.704 310.574 263.841 310.854V373.644C277.056 373.203 290.39 372.977 303.796 372.977 313.463 372.977 323.077 373.114 332.637 373.334V311.574zM541.127 300.663V398.652C545.217 399.658 549.264 400.682 553.247 401.753V300.764L552.449 300.663zM39.568 357.351C36.496 358.923 33.508 360.512 30.651 362.149V408.646C33.556 407.729 36.58 406.848 39.568 405.967zM128.819 327.087C113.699 330.462 99.376 334.308 86.042 338.594V394.205C99.751 391.252 114.05 388.603 128.819 386.24zM258.917 311.021C235.671 311.896 212.973 313.724 191.204 316.42V378.27C213.206 376.151 235.88 374.68 258.917 373.835zM81.113 340.207C73.97 342.606 67.124 345.13 60.618 347.773V400.158C67.273 398.461 74.131 396.848 81.113 395.295zM81.113 272.446C73.94 275.411 67.07 278.494 60.618 281.726V337.194C67.154 334.64 73.988 332.194 81.113 329.872zM133.742 315.997C150.457 312.473 168.03 309.502 186.27 307.139V243.855L186.163 243.795C167.775 246.807 150.25 250.575 133.743 254.951V315.997zM43.021 344.749A295 295 0 0 1 56.671 338.808V283.786A244 244 0 0 0 43.021 291.447zM39.568 293.591C36.478 295.555 33.478 297.532 30.651 299.556V350.881A239 239 0 0 1 39.568 346.339zM211.979 261.041L191.198 246.611V306.544A785 785 0 0 1 231.939 302.609L231.135 261.91zM128.819 256.255C113.574 260.464 99.263 265.22 86.042 270.441V328.338C99.448 324.141 113.746 320.367 128.819 317.063zM509.304 263.976L477.129 272.369V322.944C480.451 323.843 483.701 324.777 486.933 325.718V302.353H500.428V329.867C500.511 329.891 500.392 340.737 500.392 340.737A472 472 0 0 0 467.646 331.236V384.412A865 865 0 0 1 509.339 391.621zM514.268 284.459V334.629L515.357 335.064 515.375 335.106C521.06 337.237 522.637 338.047 527.935 340.362L528.167 350.916C522.958 348.636 520.786 346.797 515.053 344.654L514.267 344.255V392.616A712 712 0 0 1 536.685 397.599V283.316zM42.967 466.323V506.159C47.569 505.754 52.158 505.385 56.754 504.998V464.055A1221 1221 0 0 0 42.967 466.323M56.748 516.202C52.152 516.589 47.563 516.97 42.967 517.381V548.02H56.754V516.202zM56.748 559.181H42.967V597.011C47.563 597.16 52.158 597.285 56.754 597.428V559.181zM42.967 608.19V629.287C47.283 630.21 51.86 631.12 56.754 631.996V608.607C52.152 608.458 47.563 608.339 42.967 608.19M56.748 452.739V410.617A299 299 0 0 0 42.961 415.242V454.995C47.563 454.215 52.158 453.471 56.748 452.739M39.586 559.181H30.3L30.294 596.535C33.395 596.642 36.485 596.785 39.586 596.886zM39.586 466.907C36.496 467.437 33.413 467.955 30.312 468.508L30.306 507.362C33.401 507.07 36.497 506.761 39.586 506.481zM39.586 517.702C36.496 517.982 33.401 518.291 30.3 518.577V548.014H39.586zM39.586 455.572V416.486C36.36 417.718 33.252 418.962 30.323 420.236L30.311 457.173C33.407 456.626 36.497 456.102 39.586 455.572M30.294 607.708V626.275C33.193 627.043 36.306 627.805 39.586 628.549V608.059C36.485 607.958 33.395 607.815 30.294 607.708M81.083 514.243C74.273 514.761 67.463 515.315 60.647 515.886V548.013H81.083zM60.653 463.43V504.677C67.469 504.117 74.279 503.558 81.089 503.04V460.323C74.279 461.317 67.463 462.353 60.653 463.43M60.653 608.708V632.662A637 637 0 0 0 81.089 635.805V609.256C74.279 609.065 67.451 608.917 60.653 608.708M81.083 559.181H60.647V597.535C67.451 597.749 74.267 597.892 81.083 598.083zM81.083 449.042V403.932A433 433 0 0 0 60.647 409.432V452.12A1529 1529 0 0 1 81.083 449.042M128.926 510.963C114.663 511.814 100.376 512.779 86.078 513.85V548.013H128.926zM86.077 459.602V502.641A2983 2983 0 0 1 128.925 499.766V454.114A1571 1571 0 0 0 86.077 459.602M128.926 442.863V394.377C113.627 396.859 99.275 399.651 86.078 402.729V448.316A1589 1589 0 0 1 128.926 442.863M86.077 609.387V636.484C99.179 638.204 113.513 639.776 128.925 641.169V610.548C114.633 610.232 100.358 609.78 86.077 609.387M128.926 559.181H86.077V598.22C100.358 598.607 114.627 599.059 128.925 599.375zM133.545 453.566V499.48C151.07 498.462 168.577 497.658 186.067 496.956V448.661C168.577 450.007 151.07 451.62 133.545 453.566M186.073 508.136C168.578 508.844 151.076 509.648 133.551 510.672V548.02H186.073zM133.545 610.649V641.574C149.981 642.997 167.541 644.223 186.067 645.217V611.494C168.559 611.238 151.052 611.018 133.545 610.649M186.073 437.452V387.062C167.625 388.854 150.047 391.056 133.551 393.628V442.322A1604 1604 0 0 1 186.073 437.452M186.073 559.181H133.551V599.481C151.052 599.85 168.565 600.07 186.073 600.326zM258.673 506.076C236.148 506.415 213.616 507.088 191.067 507.951V548.013H258.673zM191.067 448.28V496.771C213.616 495.908 236.154 495.241 258.673 494.908V444.791A1524 1524 0 0 0 191.067 448.28M191.067 611.578V645.479C212.509 646.574 235.142 647.366 258.673 647.807V612.215A8055 8055 0 0 1 191.067 611.578M258.673 433.607V382.389C235.189 383.181 212.557 384.615 191.067 386.598V437.072A1529 1529 0 0 1 258.673 433.607M258.673 559.181H191.067V600.404C213.592 600.725 236.13 600.922 258.673 601.047zM332.762 601.112V559.18H263.662V601.07C286.693 601.19 309.724 601.208 332.762 601.112M263.661 506.034V548.019H332.761V505.98C309.73 505.731 286.693 505.725 263.661 506.034M332.762 433.285V382.037A1283 1283 0 0 0 302.29 381.65C289.2 381.65 276.318 381.858 263.662 382.233V433.475C286.693 432.886 309.73 432.833 332.762 433.285M301.712 612.441C289.021 612.441 276.347 612.298 263.662 612.239V647.89C276.461 648.104 289.485 648.217 302.736 648.217 312.862 648.217 322.88 648.152 332.762 648.027V612.286C322.41 612.316 312.058 612.441 301.712 612.441M263.661 444.655V494.861C286.692 494.551 309.73 494.557 332.755 494.807V444.464A1512 1512 0 0 0 263.661 444.655M403.118 559.181H337.75V601.089C359.543 600.988 381.336 600.839 403.124 600.553V559.181zM337.75 548.013H403.124V507.617C381.319 506.849 359.538 506.29 337.75 506.016zM403.118 436.279V385.716A1190 1190 0 0 0 337.744 382.15V433.392C359.531 433.886 381.313 434.845 403.118 436.279M337.75 444.566V494.843C359.531 495.117 381.319 495.665 403.124 496.432V447.47A1542 1542 0 0 0 337.75 444.566M337.75 612.25V647.955C360.394 647.616 382.295 646.967 403.124 646.026V611.726C381.336 612 359.543 612.155 337.75 612.25M408.112 611.643V645.788C427.304 644.871 445.573 643.71 462.693 642.341V610.761C444.507 611.137 426.316 611.399 408.112 611.643M462.687 559.181H408.106V600.476C426.31 600.232 444.501 599.964 462.687 599.595zM408.112 548.013H462.693V510.302C444.489 509.284 426.292 508.469 408.112 507.796zM408.112 447.786V496.617C426.286 497.284 444.49 498.099 462.693 499.111V452.578C444.484 450.673 426.286 449.048 408.112 447.786M462.687 441.345V392.389C445.507 389.889 427.244 387.793 408.106 386.121V436.583C426.286 437.845 444.484 439.452 462.687 441.345M467.682 548.013H509.405V513.261C495.487 512.261 481.576 511.356 467.682 510.552zM509.411 559.181H467.688V599.517C481.606 599.225 495.505 598.803 509.411 598.434zM509.411 446.923V400.729C496.434 397.931 482.486 395.395 467.688 393.151V441.863C481.582 443.363 495.487 445.054 509.411 446.923M467.682 453.102V499.367C481.582 500.165 495.488 501.07 509.405 502.064V458.186A1591 1591 0 0 0 467.682 453.102M467.682 610.685V641.931C482.552 640.681 496.511 639.27 509.405 637.722V609.601C495.499 609.97 481.605 610.393 467.682 610.685M536.788 559.181H514.161V598.303C521.703 598.101 529.251 597.922 536.788 597.696zM514.155 548.013H536.782V515.404C529.24 514.791 521.686 514.142 514.155 513.588zM514.155 458.817V502.386C521.685 502.934 529.245 503.588 536.782 504.202V462.128C529.24 460.966 521.692 459.858 514.155 458.817M514.155 609.476V637.139C522.138 636.139 529.698 635.073 536.782 633.966V608.869C529.246 609.095 521.697 609.274 514.155 609.476M536.788 450.816V407.42A478 478 0 0 0 514.161 401.771V447.548A1510 1510 0 0 1 536.788 450.816M553.271 559.181H541.115V597.577C545.163 597.458 549.223 597.381 553.271 597.25zM541.115 548.013H553.271V516.725C549.217 516.374 545.169 516.082 541.115 515.755zM541.115 462.811V504.546C545.169 504.873 549.217 505.171 553.271 505.522V464.74C549.217 464.079 545.163 463.442 541.115 462.811M541.115 608.756V633.27A542 542 0 0 0 553.271 631.121V608.429C549.223 608.559 545.163 608.631 541.115 608.756M553.271 453.429V448.851H553.211V412.325A345 345 0 0 0 541.115 408.616V451.494C545.163 452.126 549.217 452.775 553.271 453.429M557.605 548.013H565.498V517.856C562.873 517.618 560.23 517.344 557.605 517.112zM565.498 559.181H557.605V597.118C560.242 597.035 562.867 596.904 565.498 596.82zM557.605 465.442V505.885C560.23 506.117 562.873 506.397 565.498 506.635V466.805C562.867 466.353 560.236 465.883 557.605 465.442M557.605 608.292V630.276A333 333 0 0 0 565.498 628.687V608C562.867 608.083 560.242 608.214 557.605 608.292" fill="#ffffff" data-fill-palette-color="accent"></path></svg></g></svg></g><g><rect width="61.48948365219256" height="6.817326791852614" y="138.03654862894092" x="300.4211712" fill="#ffffff" data-fill-palette-color="accent"></rect><rect width="61.48948365219256" height="6.817326791852614" y="138.03654862894092" x="33.60934514780743" fill="#ffffff" data-fill-palette-color="accent"></rect><rect width="61.48948365219256" height="6.817326791852614" y="124.4018950452357" x="300.4211712" fill="#ffffff" data-fill-palette-color="accent"></rect><rect width="61.48948365219256" height="6.817326791852614" y="124.4018950452357" x="33.60934514780743" fill="#ffffff" data-fill-palette-color="accent"></rect></g></svg></g><defs></defs></svg><rect width="328.3013097043851" height="247.2" fill="none" stroke="none" visibility="hidden"></rect></g></svg></g></svg>